<svg class="icon" style="vertical-align: middle;fill: currentColor;overflow: hidden;" viewBox="0 0 1024 1024" version="1.1" xmlns="http://www.w3.org/2000/svg"><path d="M677.7 512c0-91.135-74.565-165.7-165.7-165.7s-165.7 74.565-165.7 165.7c0 77.879 53.852 143.33 126.761 160.73-1.657 4.143-2.486 8.285-2.486 13.257v281.692c0 23.198 18.227 41.425 41.425 41.425s41.425-18.227 41.425-41.425v-281.692c0-4.143-0.83-9.114-2.486-13.257 72.909-17.398 126.761-82.851 126.761-160.73zM512 603.135c-50.539 0-91.135-40.597-91.135-91.135s40.597-91.135 91.135-91.135 91.135 40.597 91.135 91.135-40.597 91.135-91.135 91.135z" fill="#3399FF" /><path d="M512 14.897c-274.235 0-497.103 222.867-497.103 497.103 0 166.53 82.022 314.004 207.126 404.309l48.054-67.108c-104.391-75.395-172.329-198.842-172.329-337.201 0-228.667 185.584-414.253 414.253-414.253s414.253 185.584 414.253 414.253c0 138.359-67.938 261.808-173.157 336.373l48.054 67.108c125.933-90.307 207.126-237.78 207.126-404.309 0.83-273.407-222.039-496.274-496.274-496.274z" fill="#3399FF" /><path d="M512 180.598c-183.099 0-331.402 148.302-331.402 331.402 0 111.019 54.682 209.612 138.359 269.264l48.054-67.108c-62.966-45.568-103.563-119.306-103.563-202.156 0-137.533 111.019-248.551 248.551-248.551s248.551 111.019 248.551 248.551c0 82.851-40.597 156.588-103.563 202.156l48.054 67.108c83.679-59.652 138.359-158.244 138.359-269.264 0-183.099-148.302-331.402-331.402-331.402z" fill="#3399FF" /></svg>
